<svg id="Capa_1" enable-background="new 0 0 512 512" height="512" viewBox="0 0 512 512" width="512" xmlns="http://www.w3.org/2000/svg"><g><g><path d="m500.773 147.096c-3.003-67.299-58.496-120.942-126.535-120.942-53.927 0-99.954 33.712-118.234 81.199-18.279-47.487-64.307-81.199-118.234-81.199-66.829 0-121.533 51.76-126.302 117.373-22.465 130.507 240.006 342.319 240.006 342.319s269.95-211.308 249.299-338.75z" fill="#e8c2d8"/><path d="m500.773 147.096c-3.003-67.299-58.496-120.941-126.534-120.941-21.98 0-56.833 21.777-74.844 31.628 71.706-10.813 106.24 19.654 117.234 80.242 10.994 60.589-78.269 157.815-142.061 216.274-34.366 31.492-79.317 30.166-116.463 2.025-33.42-25.318-65.752-51.161-93.17-90.132 6.484 21.349 6.38 28.204 16.522 48.065 71.173 91.806 170.018 171.59 170.018 171.59s269.949-211.309 249.298-338.751z" fill="#d392d8"/><path d="m61.536 396.267 8.328 23.416c.357 1.003 1.062 1.797 1.953 2.198l20.804 9.373c2.939 1.324 2.939 6.007 0 7.331l-20.804 9.373c-.891.401-1.597 1.196-1.953 2.198l-8.328 23.416c-1.176 3.308-5.337 3.308-6.514 0l-8.328-23.416c-.357-1.003-1.062-1.797-1.953-2.198l-20.804-9.373c-2.939-1.324-2.939-6.007 0-7.331l20.804-9.373c.891-.401 1.597-1.196 1.953-2.198l8.328-23.416c1.177-3.308 5.338-3.308 6.514 0z" fill="#e8c2d8"/><path d="m487.255 345.212 6.177 17.37c.264.744.788 1.333 1.449 1.631l15.433 6.953c2.18.982 2.18 4.456 0 5.438l-15.433 6.953c-.661.298-1.184.887-1.449 1.631l-6.177 17.37c-.873 2.454-3.959 2.454-4.832 0l-6.177-17.37c-.264-.744-.788-1.333-1.449-1.631l-15.432-6.953c-2.18-.982-2.18-4.456 0-5.438l15.432-6.953c.661-.298 1.184-.887 1.449-1.631l6.177-17.37c.873-2.454 3.959-2.454 4.832 0z" fill="#e8c2d8"/><ellipse cx="413.451" cy="471.234" fill="#d789b9" rx="7.844" ry="7.844" transform="matrix(.924 -.383 .383 .924 -148.861 194.091)"/></g><g><path d="m251.474 495.945c-2.247 0-4.493-.748-6.343-2.24-.662-.535-66.954-54.245-129.567-123.295-85.302-94.072-123.699-170.815-114.132-228.105 2.609-34.202 17.875-65.952 43.02-89.448 25.397-23.732 58.539-36.802 93.318-36.802 28.187 0 55.255 8.512 78.274 24.616 16.458 11.513 30.02 26.284 39.96 43.383 9.94-17.099 23.502-31.87 39.959-43.383 23.02-16.104 50.088-24.616 78.275-24.616 35.454 0 69.067 13.511 94.646 38.044 25.358 24.321 40.242 56.961 41.95 91.966 8.721 56.061-31.522 131.801-119.623 225.129-64.678 68.516-132.831 122.071-133.512 122.604-1.829 1.432-4.027 2.147-6.225 2.147zm-113.703-459.691c-60.773 0-111.827 47.441-116.229 108.005-.024.329-.064.656-.119.981-8.634 50.153 29.04 123.262 108.946 211.426 50.472 55.688 103.41 101.254 121.207 116.157 18.221-14.779 72.835-60.263 125.106-115.659 82.576-87.515 122.039-159.597 114.123-208.452-.062-.386-.103-.775-.12-1.165-2.784-62.407-53.932-111.292-116.444-111.292-47.876 0-91.603 30.031-108.81 74.728-1.5 3.899-5.247 6.471-9.425 6.471s-7.925-2.572-9.425-6.471c-17.208-44.698-60.934-74.729-108.81-74.729z" fill="#3c122c"/><path d="m68.463 216.67c-4.134 0-8.013-2.558-9.5-6.671-6.56-18.158-15.537-53.717-1.952-87.86 2.063-5.183 7.937-7.711 13.118-5.65 5.182 2.062 7.712 7.935 5.65 13.117-8.122 20.413-7.327 47.214 2.181 73.53 1.895 5.246-.822 11.035-6.068 12.93-1.131.41-2.29.604-3.429.604z" fill="#fff"/><path d="m90.61 98.861c-2.681 0-5.354-1.06-7.341-3.161-3.832-4.053-3.652-10.445.4-14.277 4.559-4.309 9.382-8.114 13.075-10.947 4.422-3.395 10.765-2.56 14.16 1.866 3.396 4.425 2.56 10.765-1.865 14.16-3.308 2.538-7.605 5.924-11.493 9.599-1.951 1.844-4.446 2.76-6.936 2.76z" fill="#fff"/><g fill="#3c122c"><path d="m338.254 223.802c-3.346 0-6.06-2.713-6.06-6.06v-12.405c0-3.346 2.713-6.06 6.06-6.06 3.346 0 6.06 2.713 6.06 6.06v12.405c-.001 3.347-2.714 6.06-6.06 6.06z"/><path d="m381.341 199.535c-3.346 0-6.06-2.713-6.06-6.06v-12.404c0-3.346 2.713-6.06 6.06-6.06 3.346 0 6.06 2.713 6.06 6.06v12.404c-.001 3.347-2.714 6.06-6.06 6.06z"/><path d="m366.484 256.984c-3.346 0-6.06-2.713-6.06-6.06v-12.404c0-3.346 2.713-6.06 6.06-6.06 3.346 0 6.06 2.713 6.06 6.06v12.404c-.001 3.347-2.714 6.06-6.06 6.06z"/><path d="m301.605 314.433c-3.346 0-6.06-2.713-6.06-6.06v-12.405c0-3.346 2.713-6.06 6.06-6.06s6.06 2.713 6.06 6.06v12.405c0 3.347-2.714 6.06-6.06 6.06z"/></g></g></g></svg>